<svg preserveAspectRatio="none" width="100%" height="100%" overflow="visible" style="display: block;" viewBox="0 0 6016 868" fill="none" xmlns="http://www.w3.org/2000/svg">
<g id="Layer 1">
<path id="Vector" d="M1029.81 182.868C981.011 182.012 933.814 222.301 904.092 285.827C900.338 292.081 894.677 302.087 892.585 290.698C888.954 267.197 894.308 236.652 886.739 214.203C877.939 199.063 856.648 192.414 841.264 193.928C796.035 204.592 373.778 369.366 334.642 382.268C324.796 387.14 321.965 406.428 330.026 414.986C337.288 423.61 352.548 422.096 364.548 425.585C396.054 433.945 416.73 465.544 416.853 500.895C417.776 534.731 417.345 571.333 417.53 600.298C421.345 632.094 399.192 661.06 368.178 656.123C125.913 664.088 103.268 62.4646 373.286 58.7123C404.792 56.6057 437.775 72.7341 453.651 102.884C468.912 132.113 470.204 171.085 477.466 203.21C479.25 227.172 497.465 232.504 517.279 223.156C531.74 218.087 554.631 212.426 558.693 196.824C563.308 178.128 559.062 152.915 559.554 132.113C561.523 87.0851 541.524 41.1356 500.665 23.888C413.838 -8.9613 306.889 -5.93311 221.847 20.794C-116.045 120.461 -48.9713 703.85 294.582 743.874C384.362 756.119 478.635 741.57 558.816 698.781C569.707 693.909 579.061 686.273 578.261 672.712C579.122 589.502 576.784 516.76 575.984 422.82C574.507 374.764 601.091 328.287 643.366 310.513C683.118 288.987 730.869 298.4 730.5 354.159C730.069 449.152 732.161 673.041 729.085 763.755C727.115 789.231 709.516 813.72 688.102 825.767C674.195 832.877 671.364 860.921 684.287 867.109C717.947 862.171 832.403 812.009 911.107 785.282C947.105 768.627 979.534 773.63 972.027 733.21C960.212 715.896 924.399 748.351 901.815 707.207C896.584 697.793 894.492 686.404 894.677 676.464C894.677 630.646 896.646 430.324 902.615 383.848C908.153 352.381 933.629 313.541 967.843 313.871C1005.5 313.41 1038.18 359.228 1076.76 333.883C1148.08 291.291 1110.24 178.458 1030.86 182.868H1029.75H1029.81Z" fill="var(--fill-0, #363636)"/>
<path id="Vector_2" d="M1576.47 635.52C1544.78 631.372 1556.53 582.395 1554.38 557.84C1554.38 506.755 1554.38 442.044 1554.38 396.358C1554.99 360.546 1552.78 314.004 1542.44 282.669C1523.85 211.441 1454.32 181.751 1379.8 182.804C1281.9 178.92 1185.59 213.613 1156.86 267.791C1136.61 296.691 1140.8 344.155 1170.95 364.957C1205.65 390.828 1256.85 373.515 1271.37 331.778C1283.8 306.565 1276.85 267.265 1292.73 247.516C1303 235.6 1319.13 235.205 1333.22 238.102C1361.09 243.303 1380.54 264.237 1388.6 292.346C1400.84 334.609 1379.92 381.744 1340.79 400.505C1321.22 409.853 1298.94 414.461 1279.68 421.637C1177.72 455.803 1109.47 507.15 1124 601.551C1132 695.952 1234.33 730.644 1315.74 701.547C1336.29 694.174 1353.15 682.193 1370.51 667.25C1377.77 661.325 1386.38 655.532 1395.8 656.059C1406.94 656.454 1415.49 665.999 1422.69 674.162C1443.37 701.021 1487.43 713.199 1525.58 709.908C1566.87 708.262 1603.24 691.212 1624.16 653.491C1631.48 642.629 1629.88 626.238 1616.53 622.551C1602.56 618.14 1591.11 636.375 1577.51 635.651H1576.53L1576.47 635.52ZM1273.4 553.034C1273.28 513.997 1292.23 484.439 1321.53 464.163C1345.59 448.166 1395.98 419.728 1396.41 471.8C1396.41 488.52 1396.41 534.075 1396.41 559.288C1396.17 570.479 1397.34 576.667 1394.81 587.332C1388.72 613.664 1355.19 628.542 1333.52 628.542C1295.62 629.727 1272.67 594.046 1273.47 554.548V553.1L1273.4 553.034Z" fill="var(--fill-0, #363636)"/>
<path id="Vector_3" d="M3871.24 634.86C3840.72 631.963 3851.61 581.076 3849.64 557.773C3849.64 505.701 3849.64 440.99 3849.64 394.25C3853.52 263.774 3815.12 177.997 3662.02 182.737C3574.88 182.671 3445.47 212.624 3439.32 312.225C3440.12 367.523 3503.32 394.974 3542.76 364.166C3561.84 349.946 3571.01 325.128 3574.51 301.1C3578.64 277.204 3576.24 256.665 3592.24 243.63C3602.64 235.599 3615.99 235.731 3628.36 238.166C3659.86 243.828 3681.22 271.279 3686.14 303.733C3692.05 342.902 3671.43 383.322 3635.93 400.372C3617.1 409.457 3595.31 414.131 3576.79 420.911C3492.92 447.836 3420.24 495.629 3418.34 563.5C3406.21 682.85 3512.3 736.897 3614.2 700.229C3633.71 692.725 3649.83 680.678 3666.69 666.458C3673.71 660.929 3682.02 655.728 3690.94 656.255C3701.95 656.65 3710.63 665.998 3717.83 674.095C3740.84 703.653 3790.38 714.712 3828.9 708.656C3873.15 702.533 3910.13 676.925 3932.04 639.402C3942.87 622.945 3929.88 607.409 3913.21 608.462C3897.33 609.844 3888.41 633.609 3872.04 634.86H3871.12H3871.24ZM3568.73 553.033C3568.61 513.995 3587.56 484.438 3616.85 464.162C3640.91 448.165 3691.31 419.726 3691.74 471.798C3691.74 488.519 3691.74 534.074 3691.74 559.287C3691.49 570.478 3692.66 576.666 3690.14 587.33C3684.05 613.663 3650.51 628.54 3628.85 628.54C3590.94 629.725 3567.99 594.045 3568.79 554.547V553.099L3568.73 553.033Z" fill="var(--fill-0, #363636)"/>
<path id="Vector_4" d="M2176.82 481.869C2175.89 433.089 2178.66 377.66 2175.28 331.513C2167.16 225.328 2100.76 177.009 2017.44 183.329C1973.93 186.093 1935.54 202.485 1895.48 240.93C1890.92 245.209 1884.28 251.726 1879.6 253.635C1872.95 256.861 1870.19 250.015 1868.4 243.892C1864.22 231.977 1859.11 215.98 1850.19 210.582C1822.25 218.35 1679.61 272.594 1651.73 282.008C1646.75 283.522 1646.57 289.118 1646.32 293.858C1646.2 302.481 1645.46 316.042 1648.47 319.597C1650.38 321.901 1653.15 321.177 1655.8 320.519C1666.13 317.557 1688.9 307.485 1699.3 305.049C1707.05 302.876 1709.52 310.118 1709.64 317.359C1713.89 413.735 1711.67 516.035 1710.87 615.9C1714.62 647.301 1673.33 637.229 1659.3 650C1656.9 653.028 1656.47 657.307 1656.23 661.323C1656.1 670.67 1655.49 683.573 1657.46 689.3C1660.78 697.332 1670.07 695.094 1677.27 695.62C1687.55 695.62 1699.55 695.62 1708.96 695.62C1747.42 695.62 1834.86 695.62 1887.17 695.62C1897.14 694.435 1912.09 699.109 1919.41 690.815C1922.06 686.601 1921.63 677.319 1921.69 668.037C1921.44 660.862 1922.18 651.514 1915.41 647.696C1899.97 639.796 1870.8 644.931 1873.88 616.36C1873.02 560.865 1872.77 508.794 1872.77 455.866C1872.77 428.349 1872.77 380.49 1872.77 360.544C1872.46 347.641 1873.82 335.66 1879.91 323.81C1895.97 294.516 1939.6 279.967 1969.81 283.522C1995.23 287.011 2008.95 303.601 2013.56 339.478C2017.99 378.186 2015.04 416.697 2015.9 458.433C2015.66 511.822 2016.27 567.317 2014.36 623.338C2011.72 652.37 1960.83 631.041 1962.37 662.639C1962.61 673.567 1960.64 685.482 1965.26 692.131C1974.92 699.109 1992.4 694.238 2003.23 695.686C2037.93 696.015 2135.1 695.489 2171.65 695.686C2187.71 694.633 2207.65 698.122 2223.71 693.645C2231.4 687.852 2227.77 675.542 2228.57 664.022C2231.4 637.294 2194.48 646.84 2182.91 634.99C2178.42 630.777 2178.23 624.063 2177.93 617.743C2177.13 572.912 2176.88 525.449 2176.82 482.791V481.935V481.869Z" fill="var(--fill-0, #363636)"/>
<path id="Vector_5" d="M3365.31 198.274C3320.51 198.406 3273.62 198.077 3228.51 198.406C3218.79 198.011 3218.54 205.779 3218.42 213.415C3218.36 227.832 3216.64 242.183 3230.54 246.199C3268.45 256.271 3267.1 291.424 3253.8 322.957C3243.28 356.069 3224.33 415.58 3213.38 450.075C3208.45 464.887 3204.33 492.47 3186.18 479.765C3173.62 453.367 3155.96 387.734 3138.49 336.781C3133.38 317.164 3122.43 298.863 3125.5 278.785C3127.23 265.948 3135.78 254.559 3147.35 249.622C3153.19 246.725 3160.82 245.409 3164.02 239.089C3167.72 230.926 3167.96 212.757 3165.01 202.356C3160.64 195.838 3149.87 199.13 3141.69 198.34C3069.44 198.669 2999.85 197.616 2927.23 198.735C2915.6 198.603 2919.6 233.757 2922.62 239.089C2926.19 245.738 2934.68 246.528 2941.02 249.358C2953.02 253.967 2962 264.96 2964.09 278.06C2967.85 298.665 2956.4 316.637 2951.11 336.32C2933.14 387.602 2912.4 456.724 2900.71 484.373C2893.64 493.194 2880.1 487.467 2878.93 476.276C2870.19 447.047 2842.56 355.148 2828.35 307.684C2823.24 292.872 2823.67 273.518 2836.84 260.418C2845.08 249.819 2862.38 253.44 2868.71 241.59C2871.36 235.468 2870.5 222.565 2870.5 213.02C2870.68 205.976 2869.27 197.879 2861.15 198.472C2798.87 197.879 2688.29 198.537 2626.82 198.274C2590.02 196.562 2542.51 202.158 2509.84 195.443C2466.64 178.986 2487.5 112.958 2483.63 73.8547C2483.5 57.7263 2485.72 53.7107 2474.83 53.9082C2456.8 53.9082 2401.78 53.7765 2387.38 53.974C2382.28 53.7765 2379.38 57.0022 2377.97 62.1369C2371.63 79.8453 2351.26 137.249 2343.63 158.513C2339.57 171.02 2333.23 182.87 2322.46 190.44C2310.71 198.867 2299.63 199.525 2282.53 200.578C2273.67 202.092 2259.94 198.472 2256.25 209.136C2254.59 219.076 2254.47 235.797 2257.79 242.907C2261.73 250.543 2272.37 248.7 2279.94 250.412C2307.39 253.506 2323.2 283.722 2320.68 309.856C2321.42 397.477 2319.69 490.034 2320.19 577.918C2320.06 712.014 2454.15 732.619 2546.02 694.569C2572.11 683.378 2641.89 626.83 2586.08 609.911C2577.1 609.714 2568.91 617.152 2560.61 620.246C2537.71 630.384 2510.95 628.146 2496.3 608.594C2484.42 593.059 2481.66 569.36 2481.59 550.335C2484.43 506.689 2476.3 374.568 2484.98 315.979C2504.73 228.951 2639.93 227.108 2669.15 307.092C2682.88 344.154 2795.12 660.732 2808.53 695.688C2813.83 698.321 2819.92 696.807 2828.9 697.202C2848.35 695.688 2870.01 700.23 2884.53 695.161C2896.16 663.76 2946.43 517.88 2965.88 462.517C2978.49 429.075 2980.71 413.605 2989.32 399.583C2998.68 390.828 3011.29 401.361 3013.63 412.552C3040.4 495.366 3072.34 581.604 3105.01 668.763C3110.12 681.864 3114.18 698.058 3130.43 697.07C3148.46 696.412 3174.67 698.914 3191.1 695.951C3204.45 661.72 3331.28 290.7 3345.12 254.296C3358.29 247.778 3382.35 249.951 3397.43 243.039C3403.46 238.628 3401.74 229.148 3402.17 221.71C3402.11 215.522 3402.6 209.004 3400.2 203.54C3395.09 194.588 3376.44 199.262 3366.05 198.077H3365.12L3365.31 198.274Z" fill="var(--fill-0, #363636)"/>
<path id="Vector_6" d="M4329.74 189.12C4291.28 189.581 4255.47 211.305 4225.25 254.687C4216.88 269.104 4196.95 289.907 4189.13 263.574C4184.82 246.853 4188.82 214.267 4180.27 199.916C4175.78 193.926 4167.59 188.396 4160.64 190.7C4133.01 200.904 3990.74 247.512 3968.77 257.255C3966.74 259.822 3966.8 263.509 3966.56 266.866C3965.88 281.809 3965.39 298.464 3981.82 300.374C4008.4 304.06 4029.82 329.536 4030.37 357.778C4032.28 417.947 4034.31 527.159 4034.31 586.735C4035.66 622.416 4017.82 652.434 3981.94 647.102C3977.63 647.036 3972.65 646.312 3969.51 649.933C3964.59 655.067 3965.2 674.619 3966.68 683.374C3967.36 687.851 3969.02 691.274 3972.9 692.262C3995.54 700.49 4129.63 749.205 4206.98 777.314C4233.19 786.794 4252.51 793.904 4259.53 796.405C4261.87 797.129 4264.14 797.261 4266.54 795.878C4277.93 786.991 4277.25 756.117 4262.79 750.192C4235.28 737.882 4200.39 730.706 4195.41 694.895C4191.16 652.105 4194.24 595.557 4193.13 558.626C4193.5 488.846 4195.96 438.946 4201.5 392.339C4202.61 385.624 4204.27 381.016 4207.28 373.774C4219.22 346.323 4236.39 308.471 4269.87 312.815C4297.25 316.963 4321.13 350.602 4349.74 347.903C4382.05 346.521 4407.28 323.546 4414.47 284.443C4424.81 231.647 4377.86 187.08 4330.91 189.252H4329.8L4329.74 189.12Z" fill="var(--fill-0, #363636)"/>
<path id="Vector_7" d="M4723.02 643.418C4657.6 643.418 4604.5 601.747 4590.16 511.428C4589.67 504.055 4584.69 487.531 4591.82 486.149C4623.21 485.886 4848.12 486.347 4875.87 485.952C4880.55 484.635 4880.42 480.685 4881.9 474.497C4884.06 462.253 4885.1 448.099 4885.16 435.131C4888.36 291.818 4788.43 203.803 4658.65 214.072C4533.12 218.549 4416.14 326.51 4416.75 468.704C4408.2 665.405 4561.79 766.718 4720.68 737.555C4784.98 727.022 4843.93 690.289 4874.64 629.725C4877.59 622.352 4872.36 614.847 4867.13 609.778C4857.23 600.957 4849.23 588.515 4837.78 596.283C4808.55 623.669 4767.94 644.208 4724.12 643.418H4722.89H4723.02ZM4667.7 266.605C4704.49 269.041 4727.76 296.36 4733.91 347.905C4737.48 383.52 4735.14 425.848 4693.54 430.062C4668.62 433.419 4654.96 431.312 4625.67 431.905C4609.91 431.378 4597.98 433.09 4590.1 430.917C4587.45 429.601 4587.08 426.968 4586.9 423.874C4587.33 408.535 4588.62 395.83 4590.96 379.043C4598.53 315.78 4627.02 263.906 4666.9 266.671H4667.76L4667.7 266.605Z" fill="var(--fill-0, #363636)"/>
<path id="Vector_8" d="M5033.63 593.714C5000.77 593.714 4975.05 621.099 4975.05 654.08C4975.05 687.061 5000.83 712.867 5033.63 712.867C5066.43 712.867 5092.21 686.403 5092.21 654.08C5092.21 621.758 5066.43 593.714 5033.63 593.714Z" fill="var(--fill-0, #83ACFF)"/>
<path id="Vector_9" d="M2598.84 412.812C2575.21 412.812 2556.69 432.495 2556.69 456.26C2556.69 480.024 2575.21 498.523 2598.84 498.523C2622.47 498.523 2640.99 479.498 2640.99 456.26C2640.99 433.022 2622.47 412.812 2598.84 412.812Z" fill="var(--fill-0, #83ACFF)"/>
<path id="Vector_10" d="M5956.44 645.72C5954.04 641.507 5954.22 635.516 5954.04 630.184C5953.48 593.648 5953.12 552.504 5953.05 519.26C5953.12 465.74 5952.62 397.276 5953.36 353.236C5953.92 324.665 5954.72 286.352 5955.33 256.136C5955.08 243.167 5958.47 231.054 5948.87 225.656C5944.56 222.694 5939.52 219.402 5934.41 220.982C5923.64 224.406 5890.9 235.07 5855.21 246.656C5833 253.832 5807.52 262.126 5786.35 268.973C5765.37 275.885 5749.12 280.888 5743.28 283.06C5741.99 283.719 5741.13 284.509 5740.63 286.089C5739.28 295.634 5738.29 310.907 5741.8 319.399C5743.65 322.295 5746.85 323.151 5749.99 323.875C5759.65 325.784 5778.48 327.759 5788.14 330.063C5796.26 331.446 5799.28 338.819 5799.21 347.047C5802.97 438.157 5801.31 536.836 5800.32 631.369C5800.14 638.412 5799.4 645.588 5793 648.814C5783.4 653.619 5765.55 655.199 5756.76 658.491C5753.74 659.61 5751.16 661.321 5750.05 664.613C5747.83 672.908 5748.94 684.428 5748.88 692.986C5749.12 697.594 5749.8 700.82 5751.83 702.597C5754.17 704.638 5757.37 704.835 5760.45 705.033C5772.57 705.23 5787.58 705.164 5798.23 705.164C5834.11 705.164 5916.07 705.164 5965.61 705.164C5973.36 705.164 5982.16 705.296 5989.85 705.033C5996.13 705.033 6000.81 703.124 6001.48 696.409C6001.97 687.785 6003.02 673.895 6000.62 664.547C5998.47 659.017 5993.24 658.227 5988.01 656.845C5978.59 653.948 5963.51 654.212 5956.87 646.312L5956.44 645.588V645.72Z" fill="var(--fill-0, #363636)"/>
<path id="Vector_11" d="M5880.46 134.878C5914.43 134.878 5941.57 110.455 5941.57 76.421C5941.57 42.3867 5914.43 17.9636 5880.46 17.9636C5846.49 17.9636 5819.36 42.1234 5819.36 76.421C5819.36 110.719 5846.49 134.878 5880.46 134.878Z" fill="var(--fill-0, #83ACFF)"/>
<path id="Vector_12" d="M6005.61 807.992H5182.01C5176.64 807.992 5172.29 812.649 5172.29 818.394V850.255C5172.29 856 5176.64 860.657 5182.01 860.657H6005.61C6010.97 860.657 6015.33 856 6015.33 850.255V818.394C6015.33 812.649 6010.97 807.992 6005.61 807.992Z" fill="var(--fill-0, #83ACFF)"/>
<path id="Vector_13" d="M5660.44 644.405C5629.92 641.509 5640.81 590.622 5638.84 567.318C5638.84 515.246 5638.84 450.535 5638.84 403.795C5642.71 273.32 5604.32 187.543 5451.22 192.282C5364.08 192.217 5234.67 222.169 5228.52 321.771C5229.32 377.068 5292.52 404.519 5331.96 373.711C5351.04 359.491 5360.2 334.673 5363.71 310.645C5367.84 286.749 5365.44 266.21 5381.43 253.176C5391.83 245.144 5405.19 245.276 5417.56 247.712C5449.06 253.373 5470.41 280.824 5475.34 313.279C5481.25 352.448 5460.63 392.867 5425.12 409.918C5406.29 419.002 5384.51 423.676 5365.99 430.457C5282.12 457.381 5209.44 505.174 5207.54 573.045C5195.41 692.395 5301.5 746.442 5403.4 709.775C5422.91 702.27 5439.03 690.223 5455.89 676.004C5462.91 670.474 5471.21 665.273 5480.14 665.8C5491.15 666.195 5499.83 675.543 5507.03 683.64C5530.04 713.198 5579.58 724.257 5618.1 718.201C5662.34 712.079 5699.33 686.471 5721.23 648.947C5732.06 632.49 5719.08 616.954 5702.4 618.007C5686.53 619.39 5677.61 643.154 5661.24 644.405H5660.31H5660.44ZM5357.93 562.578C5357.8 523.541 5376.76 493.983 5406.05 473.707C5430.11 457.71 5480.51 429.272 5480.94 481.343C5480.94 498.064 5480.94 543.619 5480.94 568.832C5480.69 580.023 5481.86 586.211 5479.34 596.876C5473.25 623.208 5439.71 638.085 5418.05 638.085C5380.14 639.27 5357.19 603.59 5357.99 564.092V562.644L5357.93 562.578Z" fill="var(--fill-0, #363636)"/>
</g>
</svg>
