<svg width="6762" height="2445" viewBox="0 0 6762 2445" fill="none" xmlns="http://www.w3.org/2000/svg">
<path d="M1501.25 971.868C1452.45 971.013 1405.25 1011.3 1375.53 1074.83C1371.78 1081.08 1366.11 1091.09 1364.02 1079.7C1360.39 1056.2 1365.75 1025.65 1358.18 1003.2C1349.38 988.063 1328.09 981.414 1312.7 982.928C1267.47 993.592 845.216 1158.37 806.079 1171.27C796.233 1176.14 793.403 1195.43 801.464 1203.99C808.725 1212.61 823.986 1211.1 835.985 1214.58C867.492 1222.95 888.168 1254.54 888.291 1289.89C889.214 1323.73 888.783 1360.33 888.968 1389.3C892.783 1421.09 870.63 1450.06 839.616 1445.12C597.35 1453.09 574.705 851.465 844.724 847.712C876.23 845.606 909.213 861.734 925.089 891.885C940.35 921.113 941.642 960.085 948.903 992.21C950.688 1016.17 968.902 1021.5 988.717 1012.16C1003.18 1007.09 1026.07 1001.43 1030.13 985.824C1034.75 967.129 1030.5 941.916 1030.99 921.113C1032.96 876.085 1012.96 830.136 972.102 812.888C885.275 780.039 778.327 783.067 693.284 809.794C355.393 909.461 422.466 1492.85 766.02 1532.87C855.8 1545.12 950.072 1530.57 1030.25 1487.78C1041.15 1482.91 1050.5 1475.27 1049.7 1461.71C1050.56 1378.5 1048.22 1305.76 1047.42 1211.82C1045.94 1163.76 1072.53 1117.29 1114.8 1099.51C1154.56 1077.99 1202.31 1087.4 1201.94 1143.16C1201.51 1238.15 1203.6 1462.04 1200.52 1552.76C1198.55 1578.23 1180.95 1602.72 1159.54 1614.77C1145.63 1621.88 1142.8 1649.92 1155.72 1656.11C1189.38 1651.17 1303.84 1601.01 1382.54 1574.28C1418.54 1557.63 1450.97 1562.63 1443.46 1522.21C1431.65 1504.9 1395.84 1537.35 1373.25 1496.21C1368.02 1486.79 1365.93 1475.4 1366.11 1465.46C1366.11 1419.65 1368.08 1219.32 1374.05 1172.85C1379.59 1141.38 1405.07 1102.54 1439.28 1102.87C1476.94 1102.41 1509.62 1148.23 1548.2 1122.88C1619.52 1080.29 1581.67 967.458 1502.29 971.868H1501.19H1501.25Z" fill="#363636"/>
<path d="M2047.9 1424.52C2016.21 1420.37 2027.97 1371.39 2025.81 1346.84C2025.81 1295.76 2025.81 1231.04 2025.81 1185.36C2026.43 1149.55 2024.21 1103 2013.88 1071.67C1995.29 1000.44 1925.76 970.751 1851.24 971.805C1753.33 967.921 1657.03 1002.61 1628.29 1056.79C1608.05 1085.69 1612.23 1133.15 1642.39 1153.96C1677.09 1179.83 1728.29 1162.52 1742.81 1120.78C1755.24 1095.57 1748.29 1056.26 1764.16 1036.52C1774.44 1024.6 1790.56 1024.21 1804.65 1027.1C1832.53 1032.3 1851.98 1053.24 1860.04 1081.35C1872.28 1123.61 1851.36 1170.74 1812.22 1189.51C1792.66 1198.85 1770.38 1203.46 1751.12 1210.64C1649.15 1244.8 1580.91 1296.15 1595.43 1390.55C1603.43 1484.95 1705.77 1519.64 1787.18 1490.55C1807.73 1483.17 1824.59 1471.19 1841.95 1456.25C1849.21 1450.33 1857.82 1444.53 1867.24 1445.06C1878.37 1445.45 1886.93 1455 1894.13 1463.16C1914.8 1490.02 1958.86 1502.2 1997.01 1498.91C2038.31 1497.26 2074.67 1480.21 2095.59 1442.49C2102.92 1431.63 2101.32 1415.24 2087.96 1411.55C2074 1407.14 2062.55 1425.38 2048.95 1424.65H2047.97L2047.9 1424.52ZM1744.84 1342.03C1744.72 1303 1763.67 1273.44 1792.96 1253.16C1817.02 1237.17 1867.42 1208.73 1867.85 1260.8C1867.85 1277.52 1867.85 1323.08 1867.85 1348.29C1867.61 1359.48 1868.77 1365.67 1866.25 1376.33C1860.16 1402.66 1826.62 1417.54 1804.96 1417.54C1767.06 1418.73 1744.1 1383.05 1744.9 1343.55V1342.1L1744.84 1342.03Z" fill="#363636"/>
<path d="M4342.68 1423.86C4312.15 1420.96 4323.05 1370.08 4321.08 1346.77C4321.08 1294.7 4321.08 1229.99 4321.08 1183.25C4324.95 1052.77 4286.55 966.998 4133.45 971.737C4046.32 971.672 3916.91 1001.62 3910.76 1101.23C3911.56 1156.52 3974.75 1183.97 4014.2 1153.17C4033.27 1138.95 4042.44 1114.13 4045.95 1090.1C4050.07 1066.2 4047.67 1045.66 4063.67 1032.63C4074.07 1024.6 4087.43 1024.73 4099.79 1027.17C4131.3 1032.83 4152.65 1060.28 4157.58 1092.73C4163.48 1131.9 4142.87 1172.32 4107.36 1189.37C4088.53 1198.46 4066.75 1203.13 4048.23 1209.91C3964.35 1236.84 3891.68 1284.63 3889.77 1352.5C3877.65 1471.85 3983.74 1525.9 4085.64 1489.23C4105.15 1481.73 4121.27 1469.68 4138.13 1455.46C4145.15 1449.93 4153.45 1444.73 4162.38 1445.26C4173.39 1445.65 4182.07 1455 4189.27 1463.1C4212.28 1492.65 4261.82 1503.71 4300.34 1497.66C4344.58 1491.53 4381.57 1465.93 4403.47 1428.4C4414.3 1411.94 4401.32 1396.41 4384.64 1397.46C4368.77 1398.84 4359.84 1422.61 4343.48 1423.86H4342.55H4342.68ZM4040.17 1342.03C4040.04 1303 4059 1273.44 4088.29 1253.16C4112.35 1237.17 4162.75 1208.73 4163.18 1260.8C4163.18 1277.52 4163.18 1323.07 4163.18 1348.29C4162.93 1359.48 4164.1 1365.67 4161.58 1376.33C4155.48 1402.66 4121.95 1417.54 4100.29 1417.54C4062.38 1418.73 4039.43 1383.05 4040.23 1343.55V1342.1L4040.17 1342.03Z" fill="#363636"/>
<path d="M2648.26 1270.87C2647.33 1222.09 2650.1 1166.66 2646.72 1120.51C2638.59 1014.33 2572.2 966.009 2488.88 972.329C2445.37 975.094 2406.97 991.485 2366.91 1029.93C2362.36 1034.21 2355.71 1040.73 2351.04 1042.64C2344.39 1045.86 2341.62 1039.01 2339.84 1032.89C2335.65 1020.98 2330.55 1004.98 2321.62 999.582C2293.69 1007.35 2151.05 1061.59 2123.17 1071.01C2118.19 1072.52 2118 1078.12 2117.76 1082.86C2117.63 1091.48 2116.9 1105.04 2119.91 1108.6C2121.82 1110.9 2124.59 1110.18 2127.23 1109.52C2137.57 1106.56 2160.34 1096.48 2170.74 1094.05C2178.49 1091.88 2180.95 1099.12 2181.08 1106.36C2185.32 1202.73 2183.11 1305.04 2182.31 1404.9C2186.06 1436.3 2144.77 1426.23 2130.74 1439C2128.34 1442.03 2127.91 1446.31 2127.66 1450.32C2127.54 1459.67 2126.93 1472.57 2128.89 1478.3C2132.22 1486.33 2141.51 1484.09 2148.71 1484.62C2158.99 1484.62 2170.99 1484.62 2180.4 1484.62C2218.86 1484.62 2306.3 1484.62 2358.61 1484.62C2368.58 1483.44 2383.53 1488.11 2390.85 1479.81C2393.5 1475.6 2393.07 1466.32 2393.13 1457.04C2392.88 1449.86 2393.62 1440.51 2386.85 1436.7C2371.41 1428.8 2342.24 1433.93 2345.32 1405.36C2344.45 1349.87 2344.21 1297.79 2344.21 1244.87C2344.21 1217.35 2344.21 1169.49 2344.21 1149.54C2343.9 1136.64 2345.25 1124.66 2351.35 1112.81C2367.41 1083.52 2411.04 1068.97 2441.25 1072.52C2466.66 1076.01 2480.39 1092.6 2485 1128.48C2489.43 1167.19 2486.48 1205.7 2487.34 1247.43C2487.09 1300.82 2487.71 1356.32 2485.8 1412.34C2483.16 1441.37 2432.27 1420.04 2433.8 1451.64C2434.05 1462.57 2432.08 1474.48 2436.7 1481.13C2446.36 1488.11 2463.83 1483.24 2474.66 1484.69C2509.37 1485.02 2606.53 1484.49 2643.09 1484.69C2659.15 1483.63 2679.08 1487.12 2695.15 1482.65C2702.84 1476.85 2699.21 1464.54 2700.01 1453.02C2702.84 1426.29 2665.92 1435.84 2654.35 1423.99C2649.86 1419.78 2649.67 1413.06 2649.36 1406.74C2648.56 1361.91 2648.32 1314.45 2648.26 1271.79V1270.87Z" fill="#363636"/>
<path d="M3836.74 987.274C3791.95 987.406 3745.06 987.077 3699.95 987.406C3690.23 987.011 3689.98 994.779 3689.86 1002.42C3689.8 1016.83 3688.07 1031.18 3701.98 1035.2C3739.89 1045.27 3738.53 1080.42 3725.24 1111.96C3714.72 1145.07 3695.77 1204.58 3684.81 1239.08C3679.89 1253.89 3675.77 1281.47 3657.61 1268.76C3645.06 1242.37 3627.4 1176.73 3609.92 1125.78C3604.82 1106.16 3593.86 1087.86 3596.94 1067.78C3598.66 1054.95 3607.22 1043.56 3618.78 1038.62C3624.63 1035.73 3632.26 1034.41 3635.46 1028.09C3639.15 1019.93 3639.4 1001.76 3636.45 991.356C3632.08 984.839 3621.31 988.13 3613.12 987.34C3540.88 987.669 3471.28 986.616 3398.67 987.735C3387.04 987.604 3391.04 1022.76 3394.06 1028.09C3397.63 1034.74 3406.12 1035.53 3412.46 1038.36C3424.46 1042.97 3433.44 1053.96 3435.53 1067.06C3439.29 1087.67 3427.84 1105.64 3422.55 1125.32C3404.58 1176.6 3383.84 1245.72 3372.15 1273.37C3365.07 1282.19 3351.54 1276.47 3350.37 1265.28C3341.63 1236.05 3314 1144.15 3299.78 1096.68C3294.68 1081.87 3295.11 1062.52 3308.28 1049.42C3316.52 1038.82 3333.81 1042.44 3340.15 1030.59C3342.8 1024.47 3341.94 1011.57 3341.94 1002.02C3342.12 994.977 3340.71 986.879 3332.58 987.472C3270.31 986.879 3159.73 987.538 3098.26 987.274C3061.46 985.563 3013.95 991.158 2981.28 984.444C2938.08 967.986 2958.94 901.958 2955.06 862.855C2954.94 846.727 2957.15 842.711 2946.26 842.908C2928.23 842.908 2873.22 842.777 2858.82 842.974C2853.71 842.777 2850.82 846.002 2849.41 851.137C2843.07 868.846 2822.7 926.25 2815.07 947.513C2811.01 960.021 2804.67 971.87 2793.9 979.441C2782.15 987.867 2771.07 988.525 2753.96 989.578C2745.1 991.093 2731.38 987.472 2727.69 998.136C2726.03 1008.08 2725.9 1024.8 2729.23 1031.91C2733.16 1039.54 2743.81 1037.7 2751.38 1039.41C2778.82 1042.51 2794.64 1072.72 2792.12 1098.86C2792.85 1186.48 2791.13 1279.03 2791.62 1366.92C2791.5 1501.01 2925.59 1521.62 3017.46 1483.57C3043.55 1472.38 3113.33 1415.83 3057.52 1398.91C3048.53 1398.71 3040.35 1406.15 3032.04 1409.25C3009.15 1419.38 2982.38 1417.15 2967.74 1397.59C2955.86 1382.06 2953.09 1358.36 2953.03 1339.33C2955.86 1295.69 2947.74 1163.57 2956.42 1104.98C2976.17 1017.95 3111.36 1016.11 3140.59 1096.09C3154.31 1133.15 3266.56 1449.73 3279.97 1484.69C3285.26 1487.32 3291.35 1485.81 3300.34 1486.2C3319.78 1484.69 3341.44 1489.23 3355.97 1484.16C3367.6 1452.76 3417.87 1306.88 3437.32 1251.52C3449.93 1218.08 3452.15 1202.61 3460.76 1188.58C3470.11 1179.83 3482.73 1190.36 3485.07 1201.55C3511.84 1284.37 3543.77 1370.6 3576.45 1457.76C3581.56 1470.86 3585.62 1487.06 3601.86 1486.07C3619.89 1485.41 3646.11 1487.91 3662.54 1484.95C3675.89 1450.72 3802.71 1079.7 3816.56 1043.3C3829.73 1036.78 3853.79 1038.95 3868.87 1032.04C3874.9 1027.63 3873.17 1018.15 3873.6 1010.71C3873.54 1004.52 3874.03 998.005 3871.63 992.541C3866.53 983.588 3847.88 988.262 3837.48 987.077H3836.56L3836.74 987.274Z" fill="#363636"/>
<path d="M4801.18 978.121C4762.72 978.581 4726.9 1000.31 4696.69 1043.69C4688.32 1058.1 4668.38 1078.91 4660.57 1052.57C4656.26 1035.85 4660.26 1003.27 4651.71 988.917C4647.22 982.926 4639.03 977.396 4632.08 979.701C4604.45 989.904 4462.18 1036.51 4440.21 1046.26C4438.18 1048.82 4438.24 1052.51 4437.99 1055.87C4437.32 1070.81 4436.83 1087.46 4453.26 1089.37C4479.84 1093.06 4501.25 1118.54 4501.81 1146.78C4503.71 1206.95 4505.74 1316.16 4505.74 1375.74C4507.1 1411.42 4489.25 1441.43 4453.38 1436.1C4449.07 1436.04 4444.09 1435.31 4440.95 1438.93C4436.03 1444.07 4436.64 1463.62 4438.12 1472.37C4438.79 1476.85 4440.46 1480.27 4444.33 1481.26C4466.98 1489.49 4601.06 1538.21 4678.41 1566.31C4704.63 1575.79 4723.95 1582.9 4730.97 1585.41C4733.3 1586.13 4735.58 1586.26 4737.98 1584.88C4749.36 1575.99 4748.69 1545.12 4734.23 1539.19C4706.72 1526.88 4671.83 1519.71 4666.84 1483.9C4662.6 1441.11 4665.68 1384.56 4664.57 1347.63C4664.94 1277.85 4667.4 1227.95 4672.94 1181.34C4674.05 1174.62 4675.71 1170.02 4678.72 1162.77C4690.66 1135.32 4707.83 1097.47 4741.3 1101.82C4768.69 1105.96 4792.56 1139.6 4821.18 1136.9C4853.48 1135.52 4878.71 1112.55 4885.91 1073.44C4896.25 1020.65 4849.3 976.08 4802.35 978.252H4801.24L4801.18 978.121Z" fill="#363636"/>
<path d="M5194.45 1432.42C5129.04 1432.42 5075.94 1390.75 5061.6 1300.43C5061.11 1293.06 5056.12 1276.53 5063.26 1275.15C5094.64 1274.89 5319.56 1275.35 5347.31 1274.95C5351.99 1273.64 5351.86 1269.69 5353.34 1263.5C5355.49 1251.25 5356.54 1237.1 5356.6 1224.13C5359.8 1080.82 5259.87 992.803 5130.09 1003.07C5004.56 1007.55 4887.58 1115.51 4888.19 1257.7C4879.64 1454.41 5033.23 1555.72 5192.12 1526.56C5256.42 1516.02 5315.37 1479.29 5346.08 1418.73C5349.03 1411.35 5343.8 1403.85 5338.57 1398.78C5328.66 1389.96 5320.66 1377.52 5309.22 1385.28C5279.99 1412.67 5239.38 1433.21 5195.56 1432.42H5194.33H5194.45ZM5139.13 1055.61C5175.93 1058.04 5199.19 1085.36 5205.35 1136.91C5208.91 1172.52 5206.58 1214.85 5164.98 1219.06C5140.06 1222.42 5126.4 1220.31 5097.1 1220.91C5081.35 1220.38 5069.41 1222.09 5061.54 1219.92C5058.89 1218.6 5058.52 1215.97 5058.34 1212.87C5058.77 1197.54 5060.06 1184.83 5062.4 1168.04C5069.97 1104.78 5098.46 1052.91 5138.33 1055.67H5139.2L5139.13 1055.61Z" fill="#363636"/>
<path d="M5505.07 1382.71C5472.21 1382.71 5446.48 1410.1 5446.48 1443.08C5446.48 1476.06 5472.27 1501.87 5505.07 1501.87C5537.87 1501.87 5563.65 1475.4 5563.65 1443.08C5563.65 1410.76 5537.87 1382.71 5505.07 1382.71Z" fill="#83ACFF"/>
<path d="M3070.28 1201.81C3046.65 1201.81 3028.13 1221.5 3028.13 1245.26C3028.13 1269.02 3046.65 1287.52 3070.28 1287.52C3093.91 1287.52 3112.43 1268.5 3112.43 1245.26C3112.43 1222.02 3093.91 1201.81 3070.28 1201.81Z" fill="#83ACFF"/>
<path d="M6427.88 1434.72C6425.48 1430.51 6425.66 1424.52 6425.48 1419.18C6424.92 1382.65 6424.55 1341.5 6424.49 1308.26C6424.55 1254.74 6424.06 1186.28 6424.8 1142.24C6425.35 1113.67 6426.15 1075.35 6426.77 1045.14C6426.52 1032.17 6429.91 1020.05 6420.31 1014.66C6416 1011.69 6410.95 1008.4 6405.85 1009.98C6395.08 1013.41 6362.34 1024.07 6326.65 1035.66C6304.44 1042.83 6278.96 1051.13 6257.79 1057.97C6236.81 1064.89 6220.56 1069.89 6214.72 1072.06C6213.42 1072.72 6212.56 1073.51 6212.07 1075.09C6210.72 1084.63 6209.73 1099.91 6213.24 1108.4C6215.09 1111.3 6218.29 1112.15 6221.42 1112.88C6231.08 1114.78 6249.91 1116.76 6259.58 1119.06C6267.7 1120.45 6270.71 1127.82 6270.65 1136.05C6274.41 1227.16 6272.74 1325.84 6271.76 1420.37C6271.57 1427.41 6270.84 1434.59 6264.44 1437.81C6254.84 1442.62 6236.99 1444.2 6228.19 1447.49C6225.18 1448.61 6222.59 1450.32 6221.48 1453.61C6219.27 1461.91 6220.38 1473.43 6220.32 1481.99C6220.56 1486.59 6221.24 1489.82 6223.27 1491.6C6225.61 1493.64 6228.81 1493.84 6231.88 1494.03C6244.01 1494.23 6259.02 1494.16 6269.67 1494.16C6305.54 1494.16 6387.51 1494.16 6437.04 1494.16C6444.8 1494.16 6453.6 1494.3 6461.29 1494.03C6467.57 1494.03 6472.24 1492.12 6472.92 1485.41C6473.41 1476.79 6474.46 1462.9 6472.06 1453.55C6469.9 1448.02 6464.67 1447.23 6459.44 1445.85C6450.03 1442.95 6434.95 1443.21 6428.31 1435.31L6427.88 1434.59V1434.72Z" fill="#363636"/>
<path d="M6351.9 923.879C6385.87 923.879 6413 899.456 6413 865.421C6413 831.387 6385.87 806.964 6351.9 806.964C6317.93 806.964 6290.79 831.124 6290.79 865.421C6290.79 899.719 6317.93 923.879 6351.9 923.879Z" fill="#83ACFF"/>
<path d="M6477.04 1596.99H5653.45C5648.08 1596.99 5643.73 1601.65 5643.73 1607.39V1639.26C5643.73 1645 5648.08 1649.66 5653.45 1649.66H6477.04C6482.41 1649.66 6486.76 1645 6486.76 1639.26V1607.39C6486.76 1601.65 6482.41 1596.99 6477.04 1596.99Z" fill="#83ACFF"/>
<path d="M6131.87 1433.41C6101.35 1430.51 6112.24 1379.62 6110.27 1356.32C6110.27 1304.25 6110.27 1239.54 6110.27 1192.8C6114.15 1062.32 6075.75 976.543 5922.65 981.283C5835.52 981.217 5706.11 1011.17 5699.96 1110.77C5700.76 1166.07 5763.95 1193.52 5803.4 1162.71C5822.47 1148.49 5831.64 1123.67 5835.15 1099.65C5839.27 1075.75 5836.87 1055.21 5852.87 1042.18C5863.27 1034.14 5876.62 1034.28 5888.99 1036.71C5920.5 1042.37 5941.85 1069.82 5946.77 1102.28C5952.68 1141.45 5932.07 1181.87 5896.56 1198.92C5877.73 1208 5855.95 1212.68 5837.43 1219.46C5753.55 1246.38 5680.88 1294.17 5678.97 1362.05C5666.85 1481.4 5772.94 1535.44 5874.84 1498.77C5894.35 1491.27 5910.47 1479.22 5927.33 1465C5934.34 1459.47 5942.65 1454.27 5951.57 1454.8C5962.59 1455.2 5971.27 1464.54 5978.47 1472.64C6001.48 1502.2 6051.02 1513.26 6089.54 1507.2C6133.78 1501.08 6170.76 1475.47 6192.67 1437.95C6203.5 1421.49 6190.52 1405.95 6173.84 1407.01C6157.97 1408.39 6149.04 1432.15 6132.67 1433.41H6131.75H6131.87ZM5829.37 1351.58C5829.24 1312.54 5848.19 1282.98 5877.49 1262.71C5901.55 1246.71 5951.94 1218.27 5952.37 1270.34C5952.37 1287.06 5952.37 1332.62 5952.37 1357.83C5952.13 1369.02 5953.3 1375.21 5950.77 1385.88C5944.68 1412.21 5911.15 1427.09 5889.49 1427.09C5851.58 1428.27 5828.63 1392.59 5829.43 1353.09V1351.64L5829.37 1351.58Z" fill="#363636"/>
<path d="M818.649 1656.04C674.902 1656.04 519.771 1572.8 450.051 1449.32C445.682 1441.53 448.513 1431.66 456.451 1427.55L472.266 1419.39C479.711 1415.52 489.003 1418.22 493.126 1425.52C555.708 1536.24 696.747 1609.42 827.387 1606.85C903.876 1605.31 982.396 1577.95 1019.32 1563.23C1029.65 1559.12 1040.85 1566.73 1040.79 1577.89L1040.67 1599.3C1040.67 1605.62 1036.79 1611.32 1030.89 1613.72C1003.87 1624.7 924.367 1653.65 829.91 1655.86C826.157 1655.92 822.341 1655.98 818.649 1655.98V1656.04Z" fill="#83ACFF"/>
</svg>
