<svg preserveAspectRatio="none" width="100%" height="100%" overflow="visible" style="display: block;" viewBox="0 0 593 239" fill="none" xmlns="http://www.w3.org/2000/svg">
<g id="Layer 2">
<path id="Vector" d="M370.649 238.412C226.902 238.412 71.7711 155.173 2.0513 31.6944C-2.31773 23.9042 0.512907 14.0283 8.451 9.91852L24.2656 1.76023C31.7114 -2.10422 41.0033 0.594758 45.1262 7.89427C107.708 118.614 248.747 191.793 379.387 189.217C455.876 187.683 534.396 160.325 571.317 145.604C581.655 141.494 592.854 149.1 592.793 160.264L592.67 181.672C592.67 187.99 588.793 193.695 582.886 196.087C555.872 207.067 476.368 236.019 381.91 238.228C378.157 238.289 374.342 238.35 370.649 238.35V238.412Z" fill="var(--fill-0, #83ACFF)"/>
</g>
</svg>
